<svg width="59" height="59" viewBox="0 0 59 59" fill="none" xmlns="http://www.w3.org/2000/svg">
<path d="M24.5834 28.583L12.4761 42.829C12.0925 43.2811 11.6192 43.6486 11.0862 43.9083C10.5532 44.168 9.97204 44.3143 9.3796 44.3379C8.78715 44.3614 8.19626 44.2618 7.6443 44.0452C7.09235 43.8287 6.59134 43.4999 6.17298 43.0798C5.75295 42.6598 5.42445 42.1574 5.20817 41.6041C4.99188 41.0509 4.89251 40.4589 4.91629 39.8654C4.94008 39.2719 5.08652 38.6897 5.34638 38.1556C5.60624 37.6215 5.9739 37.1469 6.42619 36.7619L20.6378 24.63" stroke="#B2B2B2" stroke-opacity="0.4" stroke-width="1.5" stroke-linejoin="round"/>
<path d="M44.2501 24.748L32.0764 36.9487M24.4654 4.91907L12.2917 17.1222M49.1668 28.6617L54.0834 24.63M49.1668 36.725L54.0834 39.4119M27.0467 54.0808H51.6251M30.0581 54.0808C31.4127 51.652 32.4255 47.0082 37.2242 46.7476C38.65 46.6689 40.1004 46.6689 41.5263 46.7476C46.3225 47.0082 47.3402 51.652 48.6972 54.0808M22.9437 6.44569L13.8159 15.5956C13.8159 15.5956 18.381 21.6972 22.9462 26.2722C27.5137 30.8471 33.6006 35.4245 33.6006 35.4245L42.7308 26.2722C42.7308 26.2722 38.1657 20.173 33.6006 15.5956C29.0355 11.0231 22.9437 6.44569 22.9437 6.44569Z" stroke="#B2B2B2" stroke-opacity="0.4" stroke-width="1.5" stroke-linecap="round" stroke-linejoin="round"/>
</svg>
