<svg width="49" height="49" viewBox="0 0 49 49" fill="none" xmlns="http://www.w3.org/2000/svg">
<path d="M4.08325 25.5208C4.08325 24.4378 4.51346 23.3992 5.27923 22.6335C6.04501 21.8677 7.08362 21.4375 8.16659 21.4375C9.79104 21.4375 11.349 22.0828 12.4976 23.2314C13.6463 24.3801 14.2916 25.938 14.2916 27.5625V35.7291C14.2916 37.3536 13.6463 38.9115 12.4976 40.0602C11.349 41.2088 9.79104 41.8541 8.16659 41.8541C7.08362 41.8541 6.04501 41.4239 5.27923 40.6582C4.51346 39.8924 4.08325 38.8538 4.08325 37.7708V25.5208ZM31.6029 15.9372L31.0578 17.6931C30.6127 19.1324 30.3901 19.8511 30.5616 20.4207C30.706 20.8829 31.0099 21.2787 31.4191 21.5375C31.9316 21.8601 32.7054 21.8601 34.257 21.8601H35.0819C40.329 21.8601 42.9525 21.8601 44.1918 23.4118C44.3334 23.5901 44.4593 23.7786 44.5695 23.9773C45.523 25.7086 44.4388 28.0423 42.2706 32.7095C40.282 36.9929 39.2857 39.1346 37.44 40.3943C37.2603 40.5168 37.0766 40.6325 36.8888 40.7414C34.9451 41.8541 32.5359 41.8541 27.7176 41.8541H26.6743C20.8351 41.8541 17.9176 41.8541 16.1046 40.0983C14.2916 38.3404 14.2916 35.5127 14.2916 29.8573V27.8687C14.2916 24.8981 14.2916 23.4118 14.8183 22.05C15.3471 20.6902 16.3557 19.5734 18.377 17.3358L26.7294 8.08701C26.9397 7.85426 27.0438 7.73993 27.1378 7.65826C27.5554 7.29823 28.0974 7.11607 28.6477 7.1508C29.198 7.18552 29.7128 7.43438 30.0818 7.84405C30.1635 7.93593 30.2513 8.06455 30.4289 8.3218C30.7045 8.72197 30.8413 8.92205 30.9618 9.12214C32.0398 10.9004 32.3644 13.0136 31.8724 15.0226C31.8173 15.2451 31.7458 15.4758 31.6029 15.9372Z" stroke="#B2B2B2" stroke-width="1.5" stroke-linecap="round" stroke-linejoin="round"/>
</svg>
