<svg width="57" height="57" viewBox="0 0 57 57" fill="none" xmlns="http://www.w3.org/2000/svg">
<path d="M20.9004 12.3997H32.2998C32.4345 12.3996 32.5679 12.4303 32.6895 12.4885C32.8047 12.5438 32.9061 12.6233 32.9883 12.7209L39.0791 21.4709L39.6709 22.3215L40.5 21.7004L47.752 16.26C47.8382 16.3192 47.9389 16.3982 48.041 16.4963C48.1862 16.6359 48.2978 16.7776 48.3672 16.8909L47.9014 17.7053L47.5918 18.2463L47.9414 18.7629L54.2607 28.094V28.095C54.3977 28.3061 54.3852 28.4469 54.3457 28.5559C54.2936 28.6999 54.1515 28.8828 53.9023 29.0256C53.387 29.3208 52.811 29.2629 52.4609 28.8254L50.1807 25.9758L49.8809 25.5999H49.3467C48.3483 25.5999 47.8692 25.5843 47.5029 25.4358C47.2292 25.3248 46.9081 25.0867 46.4961 24.2561L45.7988 22.8508L44.8193 24.0754L37.2188 33.5754L36.7744 34.1311L37.1533 34.7327L44.5596 46.5042C44.556 46.5097 44.5544 46.5173 44.5498 46.5237C44.5259 46.5566 44.4924 46.5925 44.4512 46.6262C44.4098 46.6599 44.3671 46.6861 44.3291 46.7034C44.3261 46.7047 44.3222 46.7041 44.3193 46.7053L34.7109 37.0969L34.4424 37.0295L19.2422 33.2297L18.4639 33.0354L18.1055 33.7532C17.2765 35.411 15.5568 36.9439 13.623 38.0754C11.6775 39.2138 9.72003 39.8274 8.5498 39.8274H7.88965L7.62988 40.4348L5.47949 45.47L8.35352 36.9895C8.4022 37.0032 8.45531 37.0203 8.51562 37.0442L8.8623 37.1975C9.15866 37.3374 9.66784 37.5892 10.2393 37.6213C10.909 37.659 11.5349 37.4041 12.0957 36.8489L12.3916 36.5559L12.3926 36.1389L12.4004 30.4016V30.3997C12.4004 29.5467 12.538 28.6149 12.7236 27.802C12.9129 26.9733 13.1327 26.3497 13.2588 26.0989L13.6572 25.3059L12.917 24.8167C11.7822 24.0652 10.4634 23.9471 9.20605 24.0588C7.95598 24.1699 6.62549 24.5236 5.39941 24.8469H5.39844C4.27077 25.1452 3.23588 25.4087 2.30273 25.5325C3.78405 25.1836 5.12596 24.3481 6.26074 23.6526L6.25977 23.6516C7.71416 22.7615 8.85126 22.0932 9.9502 22.0256C10.8853 21.9682 12.0255 22.3549 13.4365 24.3313L13.9902 25.1067L14.791 24.5911C15.4774 24.1492 16.1215 23.8815 16.8115 23.8157L17.1104 23.8H25.4492L24.624 22.3147L19.874 13.7649L19.8545 13.7288L19.832 13.6956L19.6885 13.468C19.3921 12.9737 19.3586 12.7194 19.3613 12.6399C19.3614 12.6387 19.3613 12.6371 19.3613 12.636C19.3687 12.6302 19.3799 12.6229 19.3955 12.6135C19.5127 12.5432 19.7335 12.4763 20.0547 12.4377C20.3591 12.4012 20.6605 12.3997 20.9004 12.3997ZM33.6484 19.1155L23.1182 26.0706C22.789 26.276 22.5044 26.5461 22.2812 26.8635C22.0582 27.1809 21.9012 27.54 21.8193 27.9192C21.7375 28.2984 21.7324 28.6904 21.8047 29.0715C21.877 29.4526 22.0253 29.8151 22.2402 30.1379C22.4553 30.4609 22.7328 30.7377 23.0566 30.9514C23.3804 31.165 23.7436 31.3114 24.125 31.3821C24.5065 31.4528 24.8984 31.447 25.2773 31.3635C25.6562 31.2801 26.0136 31.1201 26.3301 30.8958L36.6758 23.6174L37.4727 23.0569L36.9316 22.2454L35.0322 19.3958L34.4795 18.5667L33.6484 19.1155ZM38 4.80005C38.7426 4.80005 39.4544 5.09532 39.9795 5.62036C40.5045 6.14542 40.7998 6.85732 40.7998 7.59985C40.7998 8.34246 40.5046 9.05522 39.9795 9.58032C39.4544 10.1052 38.7424 10.3997 38 10.3997C37.2576 10.3997 36.5456 10.1052 36.0205 9.58032C35.4954 9.05522 35.2002 8.34246 35.2002 7.59985C35.2002 6.85732 35.4955 6.14542 36.0205 5.62036C36.5456 5.09532 37.2574 4.80005 38 4.80005Z" stroke="#B2B2B2" stroke-width="2"/>
</svg>
