<svg width="94" height="94" viewBox="0 0 94 94" fill="none" xmlns="http://www.w3.org/2000/svg">
<path fill-rule="evenodd" clip-rule="evenodd" d="M47.0001 82.25C51.6292 82.25 56.2129 81.3382 60.4897 79.5667C64.7664 77.7953 68.6523 75.1988 71.9256 71.9255C75.1989 68.6522 77.7954 64.7663 79.5668 60.4896C81.3383 56.2129 82.2501 51.6291 82.2501 47C82.2501 42.3709 81.3383 37.7871 79.5668 33.5104C77.7954 29.2337 75.1989 25.3477 71.9256 22.0745C68.6523 18.8012 64.7664 16.2047 60.4897 14.4332C56.2129 12.6618 51.6292 11.75 47.0001 11.75C37.6512 11.75 28.6852 15.4638 22.0746 22.0745C15.4639 28.6851 11.7501 37.6511 11.7501 47C11.7501 56.3489 15.4639 65.3148 22.0746 71.9255C28.6852 78.5362 37.6512 82.25 47.0001 82.25ZM47.0001 90.0833C70.7938 90.0833 90.0834 70.7937 90.0834 47C90.0834 23.2062 70.7938 3.91666 47.0001 3.91666C23.2063 3.91666 3.91675 23.2062 3.91675 47C3.91675 70.7937 23.2063 90.0833 47.0001 90.0833Z" fill="white"/>
<path d="M62.6667 47L39.1667 63.9592V30.0408L62.6667 47Z" fill="white"/>
</svg>
