<svg width="46" height="46" viewBox="0 0 46 46" fill="none" xmlns="http://www.w3.org/2000/svg">
<g clip-path="url(#clip0_62_53)">
<path fill-rule="evenodd" clip-rule="evenodd" d="M25.4723 8.92022C25.3381 8.49856 25.1465 8.11522 25.0123 7.69356C24.8539 7.1747 24.7448 6.64207 24.6865 6.10272C24.6944 6.02916 24.6871 5.95474 24.6649 5.88415C24.6428 5.81355 24.6062 5.74831 24.5576 5.69251C24.509 5.63671 24.4494 5.59157 24.3825 5.55991C24.3156 5.52825 24.2429 5.51077 24.169 5.50856C24.0247 5.50324 23.884 5.55428 23.7767 5.65086C23.6694 5.74745 23.6038 5.88201 23.594 6.02606C23.2997 7.28689 23.2997 8.59855 23.594 9.85939C23.769 10.5686 24.0182 11.2515 24.3415 11.9083C24.5715 12.4066 24.7631 12.4066 25.0315 12.7325C25.2998 13.0583 26.354 13.0966 26.4115 12.445C26.1623 11.3908 26.2198 11.2758 25.894 10.2216C25.779 9.72331 25.6256 9.32272 25.4723 8.92022ZM32.771 5.77881C32.6474 5.703 32.4997 5.67668 32.3576 5.70512C32.2154 5.73355 32.0892 5.81464 32.0043 5.93214C31.1931 6.84958 30.5448 7.89909 30.0876 9.03522C29.8449 9.65878 29.6468 10.2977 29.4935 10.9519C29.2789 11.5084 29.1622 12.0978 29.1485 12.6941C29.1485 13.4991 29.896 13.5375 30.6243 13.0391C31.0076 12.491 31.3105 11.8891 31.5251 11.2566C31.7628 10.6305 31.9609 9.99164 32.1193 9.33997C32.3034 8.37726 32.5794 7.43442 32.9435 6.52439C33.0118 6.40041 33.0319 6.25559 33.0001 6.11767C32.9683 5.97974 32.8867 5.85841 32.771 5.77689" fill="#B2B2B2"/>
<path fill-rule="evenodd" clip-rule="evenodd" d="M21.8692 11.6208C20.5227 10.8511 19.2862 9.90344 18.193 8.80328C17.6902 8.25904 17.302 7.61912 17.0518 6.92169C16.8015 6.22425 16.6942 5.48357 16.7363 4.74378C16.7363 4.18028 16.8002 3.62445 16.928 3.07628C17.0238 2.69295 17.1197 2.29045 17.4263 2.11795C17.5859 2.03401 17.7635 1.99015 17.9438 1.99015C18.1241 1.99015 18.3017 2.03401 18.4613 2.11795C19.2024 2.47189 19.8918 2.90634 20.5294 3.42128C21.1319 3.90702 21.8415 4.24211 22.5994 4.39878C23.109 4.47056 23.628 4.36932 24.0733 4.11128C24.6713 3.73753 25.2137 3.27945 25.6833 2.75045C25.9517 2.48212 26.2008 2.15628 26.5458 2.11795C27.0499 2.06428 27.5597 2.1237 28.0389 2.29045C29.463 3.07437 30.9906 3.64937 32.5795 3.99628C33.0203 4.01801 33.4548 3.97328 33.8828 3.86212C35.1095 3.53628 36.1426 2.53962 37.4651 2.40545C37.7327 2.3772 38.0025 2.3772 38.2701 2.40545C38.5077 2.41823 38.7377 2.46934 38.9601 2.55878C39.7267 2.84628 40.1657 3.09545 40.2807 3.47878C40.2992 3.6363 40.2849 3.79594 40.2387 3.94767C40.1925 4.0994 40.1154 4.23994 40.0123 4.36045C39.0157 5.91295 36.524 7.56128 35.7017 8.72853C34.9581 9.87853 34.2809 11.0662 33.6701 12.2916C33.1909 13.1541 34.5134 13.135 34.9542 12.2916C35.7976 11.2183 36.0467 10.5666 36.8709 9.47412C37.8635 8.48124 38.9192 7.55356 40.0315 6.69687C40.9132 5.98195 41.5782 5.0332 41.9482 3.95795C42.1973 2.84628 41.7565 1.65795 39.6482 0.73795C39.2632 0.572504 38.8566 0.462789 38.4407 0.412117C38.0515 0.382357 37.6606 0.382357 37.2715 0.412117C36.0465 0.693035 34.8671 1.14467 33.7678 1.75378C33.433 1.88681 33.0734 1.94567 32.7137 1.92628C31.1037 1.81128 30.0687 0.776284 28.7462 0.316284C27.9612 0.0395223 27.1241 -0.0574185 26.2967 0.0326169C25.7949 0.102684 25.3197 0.300702 24.9167 0.607617C24.4375 0.971784 23.9794 1.48928 23.5002 1.93012C23.0211 2.37095 23.0594 2.42845 22.7527 2.39012C22.3335 2.27096 21.9425 2.06892 21.6027 1.79595C20.8491 1.22079 20.0333 0.732167 19.1705 0.339284C18.7389 0.157628 18.2701 0.0819757 17.8032 0.118656C17.3364 0.155336 16.8851 0.303282 16.4872 0.550117C15.9899 0.885753 15.6194 1.37837 15.4349 1.94928C15.1474 2.86545 15.019 3.82378 15.0516 4.78403C15.0498 5.71003 15.2318 6.62717 15.5871 7.48228C15.9425 8.33739 16.464 9.11345 17.1216 9.76545C18.4633 10.9417 19.9913 11.8867 21.643 12.5619C22.3138 12.8302 22.678 12.1785 21.873 11.6227" fill="#B2B2B2"/>
<path fill-rule="evenodd" clip-rule="evenodd" d="M22.8466 14.7238C23.8529 15.0549 24.8766 15.33 25.9133 15.548C26.547 15.6579 27.1853 15.7282 27.828 15.7588C28.4669 15.8061 29.1058 15.8061 29.7447 15.7588C30.6072 15.7588 35.5867 14.8197 35.2225 13.8422C35.2171 13.7567 35.1927 13.6736 35.151 13.5988C35.1094 13.524 35.0515 13.4594 34.9817 13.4098C34.9119 13.3602 34.8319 13.3268 34.7476 13.3121C34.6632 13.2974 34.5767 13.3017 34.4942 13.3247C31.1822 13.9572 27.7839 13.9955 24.4566 13.4397C23.5174 13.2608 22.5719 13.133 21.6199 13.0563C19.6817 12.4882 17.6159 12.5284 15.7013 13.1713C14.427 13.6342 13.2267 14.2799 12.1382 15.088C10.5665 16.2188 9.16735 17.618 7.69343 18.9213H7.67427C7.15677 18.9725 6.64566 19.0619 6.14093 19.1897C5.56977 19.3622 5.01393 19.5788 4.47343 19.8394C3.38093 20.3761 2.4226 21.1485 1.65977 22.1011C1.09451 22.8159 0.754296 23.6824 0.682268 24.5908C0.65855 24.8276 0.683542 25.0668 0.755705 25.2936C0.827868 25.5203 0.945675 25.7299 1.10188 25.9095C1.25808 26.089 1.44937 26.2347 1.66398 26.3375C1.87858 26.4404 2.11197 26.4982 2.34977 26.5075C3.63822 26.5673 4.91802 26.2688 6.04702 25.645C6.39074 25.4214 6.71018 25.1658 7.00535 24.8783C7.32096 24.619 7.60846 24.3315 7.86785 24.0158C8.34574 23.4728 8.7476 22.8786 9.07343 22.2333C9.36558 21.6259 9.572 20.9809 9.68677 20.3167C9.70622 20.2387 9.70964 20.1576 9.69683 20.0782C9.68402 19.9989 9.65525 19.9229 9.61224 19.855C9.56924 19.7871 9.51291 19.7286 9.44665 19.6831C9.38039 19.6376 9.30559 19.606 9.22677 19.5903C9.13858 19.5691 9.04663 19.5691 8.95843 19.5903C10.3768 18.6511 11.7951 17.6736 13.2307 16.7919C14.2517 16.1539 15.3213 15.597 16.4296 15.1263C17.613 14.6143 18.8777 14.3158 20.1652 14.2447C21.0814 14.2217 21.9918 14.3846 22.8466 14.7238ZM8.48118 20.0311C8.33168 20.5869 8.09785 21.1159 7.79118 21.6028C7.4902 22.092 7.1152 22.5317 6.67952 22.9061C6.43163 23.1323 6.16968 23.3425 5.89368 23.5367C5.62535 23.7437 5.33785 23.9226 5.03118 24.0733C4.58835 24.2544 4.12584 24.3831 3.6531 24.4567C3.36838 24.5177 3.08042 24.5625 2.7906 24.5908C2.84641 23.9558 3.109 23.3565 3.5381 22.885C4.00602 22.2521 4.57603 21.7015 5.22477 21.2558C5.65676 20.9637 6.11189 20.7073 6.5856 20.4892C7.03282 20.2822 7.49921 20.1288 7.98477 20.0292C8.15892 20.0576 8.33728 20.0163 8.48118 19.9142L8.61535 19.8203C8.61535 19.8203 8.50035 19.9353 8.48118 20.0311Z" fill="#B2B2B2"/>
<path fill-rule="evenodd" clip-rule="evenodd" d="M44.4761 30.5478C43.1727 27.8645 40.6427 25.5473 38.958 23.0767C38.2278 21.9756 37.6296 20.7926 37.1755 19.5519C36.5047 17.8461 36.0274 16.7536 35.4716 15.0305C35.2799 14.5897 34.1682 15.203 34.5132 15.7205C35.0307 17.4263 35.2607 18.3463 35.8741 20.0503C36.382 21.3881 37.0241 22.6723 37.7907 23.8817C39.1132 25.99 41.1238 27.9814 42.4444 30.1837C43.3316 31.4806 43.7384 33.0465 43.5944 34.6112C42.9619 39.5907 38.958 42.2721 34.0149 43.3838C29.7197 44.2597 25.2711 44.0354 21.0851 42.7321C18.3244 41.9787 15.7915 40.5575 13.7097 38.594C12.2587 37.0996 11.4121 35.121 11.3331 33.0395C11.3376 29.6963 12.1671 26.4058 13.7481 23.46C14.5435 21.9152 15.5363 20.4796 16.6978 19.1878C17.7911 17.8964 18.9963 16.7041 20.2992 15.6247C21.0276 14.5897 20.2992 14.4172 19.2642 14.9347C17.998 15.9901 16.8167 17.1337 15.7203 18.3655C14.458 19.7368 13.3641 21.254 12.462 22.885C10.6702 26.0041 9.68341 29.5203 9.59082 33.1162C9.62116 35.6607 10.6054 38.1012 12.3489 39.9549C14.6157 42.2123 17.4165 43.8599 20.4909 44.7446C25.0066 46.1495 29.8059 46.3795 34.4366 45.4154C40.1847 44.1121 44.6677 40.6621 45.3002 34.8201C45.4199 33.3475 45.1349 31.8702 44.4761 30.5478Z" fill="#B2B2B2"/>
<path fill-rule="evenodd" clip-rule="evenodd" d="M18.9386 20.2592C18.7705 20.9818 18.6869 21.7215 18.6894 22.4634C18.63 24.0499 18.884 25.6326 19.4369 27.1209C18.9172 27.8414 18.5996 28.6878 18.5169 29.5723C18.4307 30.5498 18.5955 31.5311 18.9961 32.4262C19.4178 33.3271 19.987 34.1493 20.6828 34.8604C21.1102 35.2667 21.6507 35.5331 22.2353 35.6251C22.7282 35.6669 23.2205 35.5371 23.6287 35.2577C24.037 34.9783 24.3363 34.5664 24.4758 34.0918L24.7633 32.9035C24.7825 32.6313 24.7825 32.3566 24.7633 32.0793C24.736 31.7139 24.6913 31.3499 24.6292 30.9887C24.565 30.5873 24.4754 30.1904 24.3608 29.8004C24.2238 29.4021 24.0506 29.0171 23.8433 28.6504C23.5662 28.2118 23.2309 27.8127 22.8467 27.464C22.3483 27.004 21.7925 26.6015 21.2367 26.1606C21.1408 26.0947 21.0272 26.0594 20.9108 26.0594C20.7945 26.0594 20.6809 26.0947 20.585 26.1606C20.4551 24.7798 20.5131 23.3878 20.7575 22.0226C20.93 20.9876 21.1408 19.9717 21.4092 18.9578C21.652 17.726 22.0033 16.5256 22.4633 15.3564C22.4633 14.6281 21.6967 14.7814 21.2175 15.3564C20.5467 16.1978 19.9813 17.1178 19.5328 18.0972C19.2646 18.7974 19.0656 19.5222 18.9386 20.2611M20.3186 27.9259C20.4175 27.89 20.5051 27.8285 20.5724 27.7477C20.6398 27.6669 20.6845 27.5696 20.7019 27.4659C21.0597 27.7853 21.3983 28.124 21.7178 28.4817C21.9614 28.7674 22.1675 29.083 22.3311 29.4209C22.4423 29.6918 22.5253 29.9729 22.5803 30.2642C22.616 30.5709 22.616 30.8776 22.5803 31.1842V32.6006L22.4269 33.1565C22.1969 33.5973 22.4269 33.5781 21.8711 33.1565C21.319 32.6733 20.8411 32.1114 20.4528 31.489C20.0831 30.9125 19.8595 30.2546 19.8011 29.5723C19.8337 28.9896 20.0119 28.4242 20.3186 27.9259Z" fill="#B2B2B2"/>
</g>
<defs>
<clipPath id="clip0_62_53">
<rect width="46" height="46" fill="white"/>
</clipPath>
</defs>
</svg>
