<svg width="21" height="21" viewBox="0 0 21 21" fill="none" xmlns="http://www.w3.org/2000/svg">
<path d="M18.375 0C17.7056 0 17.0476 0.2625 16.5428 0.7665L7.875 9.40625L7.6825 9.59875L7.63 9.87262L7.02625 12.9351L6.755 14.2196L8.03863 13.9484L11.1011 13.3446L11.375 13.2921L11.5675 13.0996L20.2073 4.43187C20.5691 4.06876 20.8154 3.60667 20.9151 3.10384C21.0148 2.601 20.9634 2.0799 20.7675 1.60619C20.5716 1.13248 20.2399 0.727349 19.8141 0.441835C19.3884 0.15632 18.8876 0.00319511 18.375 0.00174987V0ZM18.375 1.6975C18.5806 1.6975 18.781 1.8025 18.977 1.99762C19.3673 2.38787 19.3673 2.80962 18.977 3.20075L10.5 11.676L8.995 11.977L9.29688 10.472L17.7739 1.995C17.969 1.79987 18.1694 1.69487 18.375 1.69487V1.6975ZM0 3.47375V20.9737H17.5V9.43425L15.75 11.1842V19.2237H1.75V5.22375H9.7895L11.5395 3.47375H0Z" fill="white"/>
</svg>
