<svg width="22" height="23" viewBox="0 0 22 23" fill="none" xmlns="http://www.w3.org/2000/svg">
<path d="M10.5417 0.920455V-3L5.27083 2.22727L10.5417 7.45455V3.53409C14.9033 3.53409 18.4479 7.04943 18.4479 11.375C18.4479 12.6949 18.1185 13.9494 17.5255 15.0341L19.4494 16.942C20.517 15.2783 21.0839 13.3471 21.0833 11.375C21.0833 5.59886 16.3659 0.920455 10.5417 0.920455ZM10.5417 19.2159C6.18005 19.2159 2.63542 15.7006 2.63542 11.375C2.63542 10.0551 2.96484 8.80057 3.55781 7.71591L1.63396 5.80795C0.566289 7.47165 -0.00055293 9.40293 4.04726e-07 11.375C4.04726e-07 17.1511 4.7174 21.8295 10.5417 21.8295V25.75L15.8125 20.5227L10.5417 15.2955V19.2159Z" fill="white"/>
</svg>
