<svg width="20" height="20" viewBox="0 0 20 20" fill="none" xmlns="http://www.w3.org/2000/svg">
<path d="M14.275 15.125L13.85 14.7C13.7 14.55 13.521 14.475 13.313 14.475C13.105 14.475 12.9257 14.55 12.775 14.7C12.6243 14.85 12.5493 15.025 12.55 15.225C12.5507 15.425 12.6257 15.6 12.775 15.75L13.75 16.725C13.9 16.875 14.075 16.95 14.275 16.95C14.475 16.95 14.65 16.875 14.8 16.725L17.225 14.35C17.375 14.2 17.45 14.0207 17.45 13.812C17.45 13.6033 17.375 13.4243 17.225 13.275C17.075 13.1257 16.8957 13.0507 16.687 13.05C16.4783 13.0493 16.2993 13.1243 16.15 13.275L14.275 15.125ZM4 6H14C14.2833 6 14.521 5.904 14.713 5.712C14.905 5.52 15.0007 5.28267 15 5C14.9993 4.71733 14.9033 4.48 14.712 4.288C14.5207 4.096 14.2833 4 14 4H4C3.71667 4 3.47933 4.096 3.288 4.288C3.09667 4.48 3.00067 4.71733 3 5C2.99933 5.28267 3.09533 5.52033 3.288 5.713C3.48067 5.90567 3.718 6.00133 4 6ZM15 20C13.6167 20 12.4377 19.5123 11.463 18.537C10.4883 17.5617 10.0007 16.3827 10 15C9.99933 13.6173 10.487 12.4383 11.463 11.463C12.439 10.4877 13.618 10 15 10C16.382 10 17.5613 10.4877 18.538 11.463C19.5147 12.4383 20.002 13.6173 20 15C19.998 16.3827 19.5103 17.562 18.537 18.538C17.5637 19.514 16.3847 20.0013 15 20ZM0 2C0 1.45 0.196 0.979333 0.588 0.588C0.98 0.196667 1.45067 0.000666667 2 0H16C16.55 0 17.021 0.196 17.413 0.588C17.805 0.98 18.0007 1.45067 18 2V7.375C18 7.65833 17.904 7.896 17.712 8.088C17.52 8.28 17.2827 8.37567 17 8.375C16.7173 8.37433 16.48 8.27833 16.288 8.087C16.096 7.89567 16 7.65833 16 7.375V2H2V16.05H8.075C8.10833 16.3 8.15833 16.55 8.225 16.8C8.29167 17.05 8.36667 17.2917 8.45 17.525C8.53333 17.7083 8.5 17.8543 8.35 17.963C8.2 18.0717 8.05833 18.059 7.925 17.925L7.85 17.85C7.75 17.75 7.63333 17.7 7.5 17.7C7.36667 17.7 7.25 17.75 7.15 17.85L6.35 18.65C6.25 18.75 6.13333 18.8 6 18.8C5.86667 18.8 5.75 18.75 5.65 18.65L4.85 17.85C4.75 17.75 4.63333 17.7 4.5 17.7C4.36667 17.7 4.25 17.75 4.15 17.85L3.35 18.65C3.25 18.75 3.13333 18.8 3 18.8C2.86667 18.8 2.75 18.75 2.65 18.65L1.85 17.85C1.75 17.75 1.63333 17.7 1.5 17.7C1.36667 17.7 1.25 17.75 1.15 17.85L0 19V2ZM4 14H7.375C7.65833 14 7.896 13.904 8.088 13.712C8.28 13.52 8.37567 13.2827 8.375 13C8.37433 12.7173 8.27833 12.48 8.087 12.288C7.89567 12.096 7.65833 12 7.375 12H4C3.71667 12 3.47933 12.096 3.288 12.288C3.09667 12.48 3.00067 12.7173 3 13C2.99933 13.2827 3.09533 13.5203 3.288 13.713C3.48067 13.9057 3.718 14.0013 4 14ZM4 10H10.55C10.8333 10 11.071 9.904 11.263 9.712C11.455 9.52 11.5507 9.28267 11.55 9C11.5493 8.71733 11.4533 8.48 11.262 8.288C11.0707 8.096 10.8333 8 10.55 8H4C3.71667 8 3.47933 8.096 3.288 8.288C3.09667 8.48 3.00067 8.71733 3 9C2.99933 9.28267 3.09533 9.52033 3.288 9.713C3.48067 9.90567 3.718 10.0013 4 10Z" fill="white"/>
</svg>
