<svg width="20" height="19" viewBox="0 0 20 19" fill="none" xmlns="http://www.w3.org/2000/svg">
<path fill-rule="evenodd" clip-rule="evenodd" d="M7.51333 5.82633L10.3495 8.66133L9.11283 9.89917L5.4005 6.188L4.57567 5.36317C4.46631 5.25378 4.40487 5.10543 4.40487 4.95075C4.40487 4.79607 4.46631 4.64772 4.57567 4.53833L9.11283 0L10.3495 1.23783L7.511 4.07633H12.8333C14.6898 4.07633 16.4703 4.81383 17.7831 6.12659C19.0958 7.43934 19.8333 9.21982 19.8333 11.0763C19.8333 12.9328 19.0958 14.7133 17.7831 16.0261C16.4703 17.3388 14.6898 18.0763 12.8333 18.0763H0V16.3263H12.8333C14.2257 16.3263 15.5611 15.7732 16.5456 14.7886C17.5302 13.8041 18.0833 12.4687 18.0833 11.0763C18.0833 9.68395 17.5302 8.34859 16.5456 7.36402C15.5611 6.37946 14.2257 5.82633 12.8333 5.82633H7.51333Z" fill="white"/>
</svg>
